<svg id="visual" viewBox="0 0 960 540" width="960" height="540" xmlns="http://www.w3.org/2000/svg" xmlns:xlink="http://www.w3.org/1999/xlink" version="1.1"><rect x="0" y="0" width="960" height="540" fill="#f1f5f9"></rect><defs><linearGradient id="grad1_0" x1="43.8%" y1="0%" x2="100%" y2="100%"><stop offset="14.444444444444446%" stop-color="#f1f5f9" stop-opacity="1"></stop><stop offset="85.55555555555554%" stop-color="#f1f5f9" stop-opacity="1"></stop></linearGradient></defs><defs><linearGradient id="grad2_0" x1="0%" y1="0%" x2="56.3%" y2="100%"><stop offset="14.444444444444446%" stop-color="#f1f5f9" stop-opacity="1"></stop><stop offset="85.55555555555554%" stop-color="#f1f5f9" stop-opacity="1"></stop></linearGradient></defs><g transform="translate(960, 0)"><path d="M0 378C-32.4 338.2 -64.9 298.4 -119.4 288.3C-173.9 278.1 -250.5 297.8 -267.3 267.3C-284 236.8 -241 156.2 -249.4 103.3C-257.9 50.4 -318 25.2 -378 0L0 0Z" fill="#a855f7"></path></g><g transform="translate(0, 540)"><path d="M0 -378C37.2 -330.7 74.4 -283.4 106 -255.9C137.6 -228.4 163.5 -220.7 208.6 -208.6C253.7 -196.5 317.8 -180.1 349.2 -144.7C380.6 -109.2 379.3 -54.6 378 0L0 0Z" fill="#a855f7"></path></g></svg>