<svg id="visual" viewBox="0 0 960 540" width="960" height="540" xmlns="http://www.w3.org/2000/svg" xmlns:xlink="http://www.w3.org/1999/xlink" version="1.1"><rect x="0" y="0" width="960" height="540" fill="#f1f5f9"></rect><path d="M0 392L137 333L274 375L411 392L549 396L686 354L823 336L960 345L960 541L823 541L686 541L549 541L411 541L274 541L137 541L0 541Z" fill="#d946ef"></path><path d="M0 369L137 364L274 425L411 381L549 420L686 424L823 391L960 403L960 541L823 541L686 541L549 541L411 541L274 541L137 541L0 541Z" fill="#c33ce7"></path><path d="M0 409L137 440L274 433L411 421L549 412L686 457L823 443L960 405L960 541L823 541L686 541L549 541L411 541L274 541L137 541L0 541Z" fill="#ad33df"></path><path d="M0 480L137 459L274 461L411 478L549 433L686 451L823 441L960 485L960 541L823 541L686 541L549 541L411 541L274 541L137 541L0 541Z" fill="#962ad7"></path><path d="M0 515L137 501L274 474L411 509L549 475L686 490L823 497L960 485L960 541L823 541L686 541L549 541L411 541L274 541L137 541L0 541Z" fill="#7e22ce"></path></svg>