<svg id="visual" viewBox="0 0 900 600" width="900" height="600" xmlns="http://www.w3.org/2000/svg" xmlns:xlink="http://www.w3.org/1999/xlink" version="1.1"><path d="M0 85L13.7 92C27.3 99 54.7 113 82 125C109.3 137 136.7 147 163.8 137C191 127 218 97 245.2 80C272.3 63 299.7 59 327 62C354.3 65 381.7 75 409 77C436.3 79 463.7 73 491 79C518.3 85 545.7 103 573 112C600.3 121 627.7 121 654.8 112C682 103 709 85 736.2 89C763.3 93 790.7 119 818 123C845.3 127 872.7 109 886.3 100L900 91L900 0L886.3 0C872.7 0 845.3 0 818 0C790.7 0 763.3 0 736.2 0C709 0 682 0 654.8 0C627.7 0 600.3 0 573 0C545.7 0 518.3 0 491 0C463.7 0 436.3 0 409 0C381.7 0 354.3 0 327 0C299.7 0 272.3 0 245.2 0C218 0 191 0 163.8 0C136.7 0 109.3 0 82 0C54.7 0 27.3 0 13.7 0L0 0Z" fill="#c68cfb"></path><path d="M0 187L13.7 190C27.3 193 54.7 199 82 201C109.3 203 136.7 201 163.8 193C191 185 218 171 245.2 162C272.3 153 299.7 149 327 145C354.3 141 381.7 137 409 133C436.3 129 463.7 125 491 140C518.3 155 545.7 189 573 200C600.3 211 627.7 199 654.8 194C682 189 709 191 736.2 204C763.3 217 790.7 241 818 244C845.3 247 872.7 229 886.3 220L900 211L900 89L886.3 98C872.7 107 845.3 125 818 121C790.7 117 763.3 91 736.2 87C709 83 682 101 654.8 110C627.7 119 600.3 119 573 110C545.7 101 518.3 83 491 77C463.7 71 436.3 77 409 75C381.7 73 354.3 63 327 60C299.7 57 272.3 61 245.2 78C218 95 191 125 163.8 135C136.7 145 109.3 135 82 123C54.7 111 27.3 97 13.7 90L0 83Z" fill="#b871f9"></path><path d="M0 289L13.7 289C27.3 289 54.7 289 82 284C109.3 279 136.7 269 163.8 260C191 251 218 243 245.2 234C272.3 225 299.7 215 327 213C354.3 211 381.7 217 409 219C436.3 221 463.7 219 491 226C518.3 233 545.7 249 573 261C600.3 273 627.7 281 654.8 279C682 277 709 265 736.2 272C763.3 279 790.7 305 818 314C845.3 323 872.7 315 886.3 311L900 307L900 209L886.3 218C872.7 227 845.3 245 818 242C790.7 239 763.3 215 736.2 202C709 189 682 187 654.8 192C627.7 197 600.3 209 573 198C545.7 187 518.3 153 491 138C463.7 123 436.3 127 409 131C381.7 135 354.3 139 327 143C299.7 147 272.3 151 245.2 160C218 169 191 183 163.8 191C136.7 199 109.3 201 82 199C54.7 197 27.3 191 13.7 188L0 185Z" fill="#a855f7"></path><path d="M0 523L13.7 510C27.3 497 54.7 471 82 459C109.3 447 136.7 449 163.8 457C191 465 218 479 245.2 465C272.3 451 299.7 409 327 412C354.3 415 381.7 463 409 484C436.3 505 463.7 499 491 497C518.3 495 545.7 497 573 500C600.3 503 627.7 507 654.8 507C682 507 709 503 736.2 493C763.3 483 790.7 467 818 472C845.3 477 872.7 503 886.3 516L900 529L900 305L886.3 309C872.7 313 845.3 321 818 312C790.7 303 763.3 277 736.2 270C709 263 682 275 654.8 277C627.7 279 600.3 271 573 259C545.7 247 518.3 231 491 224C463.7 217 436.3 219 409 217C381.7 215 354.3 209 327 211C299.7 213 272.3 223 245.2 232C218 241 191 249 163.8 258C136.7 267 109.3 277 82 282C54.7 287 27.3 287 13.7 287L0 287Z" fill="#9146d9"></path><path d="M0 601L13.7 601C27.3 601 54.7 601 82 601C109.3 601 136.7 601 163.8 601C191 601 218 601 245.2 601C272.3 601 299.7 601 327 601C354.3 601 381.7 601 409 601C436.3 601 463.7 601 491 601C518.3 601 545.7 601 573 601C600.3 601 627.7 601 654.8 601C682 601 709 601 736.2 601C763.3 601 790.7 601 818 601C845.3 601 872.7 601 886.3 601L900 601L900 527L886.3 514C872.7 501 845.3 475 818 470C790.7 465 763.3 481 736.2 491C709 501 682 505 654.8 505C627.7 505 600.3 501 573 498C545.7 495 518.3 493 491 495C463.7 497 436.3 503 409 482C381.7 461 354.3 413 327 410C299.7 407 272.3 449 245.2 463C218 477 191 463 163.8 455C136.7 447 109.3 445 82 457C54.7 469 27.3 495 13.7 508L0 521Z" fill="#7b38bb"></path></svg>